<mxfile host="app.diagrams.net" agent="Mozilla/5.0 (Macintosh; Intel Mac OS X 10_15_7) AppleWebKit/537.36 (KHTML, like Gecko) Chrome/134.0.0.0 Safari/537.36" version="26.2.9">
  <diagram name="ページ1" id="QZHvUgEuXc93McnoD1h6">
    <mxGraphModel dx="1667" dy="790" grid="1" gridSize="10" guides="1" tooltips="1" connect="1" arrows="1" fold="1" page="1" pageScale="1" pageWidth="827" pageHeight="1169" math="0" shadow="0">
      <root>
        <mxCell id="0" />
        <mxCell id="1" parent="0" />
        <mxCell id="AkDlJ8Yl2c0KQVpsC7aZ-1" value="AWS Cloud" style="points=[[0,0],[0.25,0],[0.5,0],[0.75,0],[1,0],[1,0.25],[1,0.5],[1,0.75],[1,1],[0.75,1],[0.5,1],[0.25,1],[0,1],[0,0.75],[0,0.5],[0,0.25]];outlineConnect=0;gradientColor=none;html=1;whiteSpace=wrap;fontSize=12;fontStyle=0;container=1;pointerEvents=0;collapsible=0;recursiveResize=0;shape=mxgraph.aws4.group;grIcon=mxgraph.aws4.group_aws_cloud;strokeColor=#232F3E;fillColor=none;verticalAlign=top;align=left;spacingLeft=30;fontColor=#232F3E;dashed=0;" vertex="1" parent="1">
          <mxGeometry x="130" y="50" width="690" height="610" as="geometry" />
        </mxCell>
        <mxCell id="AkDlJ8Yl2c0KQVpsC7aZ-2" value="VPC" style="points=[[0,0],[0.25,0],[0.5,0],[0.75,0],[1,0],[1,0.25],[1,0.5],[1,0.75],[1,1],[0.75,1],[0.5,1],[0.25,1],[0,1],[0,0.75],[0,0.5],[0,0.25]];outlineConnect=0;gradientColor=none;html=1;whiteSpace=wrap;fontSize=12;fontStyle=0;container=1;pointerEvents=0;collapsible=0;recursiveResize=0;shape=mxgraph.aws4.group;grIcon=mxgraph.aws4.group_vpc2;strokeColor=#8C4FFF;fillColor=none;verticalAlign=top;align=left;spacingLeft=30;fontColor=#AAB7B8;dashed=0;" vertex="1" parent="AkDlJ8Yl2c0KQVpsC7aZ-1">
          <mxGeometry x="70" y="30" width="600" height="570" as="geometry" />
        </mxCell>
        <mxCell id="AkDlJ8Yl2c0KQVpsC7aZ-3" value="Private subnet" style="points=[[0,0],[0.25,0],[0.5,0],[0.75,0],[1,0],[1,0.25],[1,0.5],[1,0.75],[1,1],[0.75,1],[0.5,1],[0.25,1],[0,1],[0,0.75],[0,0.5],[0,0.25]];outlineConnect=0;gradientColor=none;html=1;whiteSpace=wrap;fontSize=12;fontStyle=0;container=1;pointerEvents=0;collapsible=0;recursiveResize=0;shape=mxgraph.aws4.group;grIcon=mxgraph.aws4.group_security_group;grStroke=0;strokeColor=#00A4A6;fillColor=#E6F6F7;verticalAlign=top;align=left;spacingLeft=30;fontColor=#147EBA;dashed=0;" vertex="1" parent="AkDlJ8Yl2c0KQVpsC7aZ-2">
          <mxGeometry x="230" y="170" width="300" height="390" as="geometry" />
        </mxCell>
        <mxCell id="AkDlJ8Yl2c0KQVpsC7aZ-4" value="RDS(MySQL)" style="sketch=0;points=[[0,0,0],[0.25,0,0],[0.5,0,0],[0.75,0,0],[1,0,0],[0,1,0],[0.25,1,0],[0.5,1,0],[0.75,1,0],[1,1,0],[0,0.25,0],[0,0.5,0],[0,0.75,0],[1,0.25,0],[1,0.5,0],[1,0.75,0]];outlineConnect=0;fontColor=#232F3E;fillColor=#C925D1;strokeColor=#ffffff;dashed=0;verticalLabelPosition=bottom;verticalAlign=top;align=center;html=1;fontSize=12;fontStyle=0;aspect=fixed;shape=mxgraph.aws4.resourceIcon;resIcon=mxgraph.aws4.rds;" vertex="1" parent="AkDlJ8Yl2c0KQVpsC7aZ-3">
          <mxGeometry x="210" y="110" width="50" height="50" as="geometry" />
        </mxCell>
        <mxCell id="AkDlJ8Yl2c0KQVpsC7aZ-48" style="edgeStyle=orthogonalEdgeStyle;rounded=0;orthogonalLoop=1;jettySize=auto;html=1;" edge="1" parent="AkDlJ8Yl2c0KQVpsC7aZ-3" source="AkDlJ8Yl2c0KQVpsC7aZ-5" target="AkDlJ8Yl2c0KQVpsC7aZ-13">
          <mxGeometry relative="1" as="geometry" />
        </mxCell>
        <mxCell id="AkDlJ8Yl2c0KQVpsC7aZ-5" value="S3(Strage)" style="sketch=0;points=[[0,0,0],[0.25,0,0],[0.5,0,0],[0.75,0,0],[1,0,0],[0,1,0],[0.25,1,0],[0.5,1,0],[0.75,1,0],[1,1,0],[0,0.25,0],[0,0.5,0],[0,0.75,0],[1,0.25,0],[1,0.5,0],[1,0.75,0]];outlineConnect=0;fontColor=#232F3E;fillColor=#7AA116;strokeColor=#ffffff;dashed=0;verticalLabelPosition=bottom;verticalAlign=top;align=center;html=1;fontSize=12;fontStyle=0;aspect=fixed;shape=mxgraph.aws4.resourceIcon;resIcon=mxgraph.aws4.s3;" vertex="1" parent="AkDlJ8Yl2c0KQVpsC7aZ-3">
          <mxGeometry x="20" y="270" width="50" height="50" as="geometry" />
        </mxCell>
        <mxCell id="AkDlJ8Yl2c0KQVpsC7aZ-43" style="edgeStyle=orthogonalEdgeStyle;rounded=0;orthogonalLoop=1;jettySize=auto;html=1;" edge="1" parent="AkDlJ8Yl2c0KQVpsC7aZ-3" source="AkDlJ8Yl2c0KQVpsC7aZ-7" target="AkDlJ8Yl2c0KQVpsC7aZ-4">
          <mxGeometry relative="1" as="geometry" />
        </mxCell>
        <mxCell id="AkDlJ8Yl2c0KQVpsC7aZ-7" value="Go(Gin)Backend(ECS Fargate)" style="sketch=0;points=[[0,0,0],[0.25,0,0],[0.5,0,0],[0.75,0,0],[1,0,0],[0,1,0],[0.25,1,0],[0.5,1,0],[0.75,1,0],[1,1,0],[0,0.25,0],[0,0.5,0],[0,0.75,0],[1,0.25,0],[1,0.5,0],[1,0.75,0]];outlineConnect=0;fontColor=#232F3E;fillColor=#ED7100;strokeColor=#ffffff;dashed=0;verticalLabelPosition=bottom;verticalAlign=top;align=center;html=1;fontSize=12;fontStyle=0;aspect=fixed;shape=mxgraph.aws4.resourceIcon;resIcon=mxgraph.aws4.fargate;" vertex="1" parent="AkDlJ8Yl2c0KQVpsC7aZ-3">
          <mxGeometry x="60" y="110" width="50" height="50" as="geometry" />
        </mxCell>
        <mxCell id="AkDlJ8Yl2c0KQVpsC7aZ-8" value="SageMaker(ML Interface)" style="sketch=0;points=[[0,0,0],[0.25,0,0],[0.5,0,0],[0.75,0,0],[1,0,0],[0,1,0],[0.25,1,0],[0.5,1,0],[0.75,1,0],[1,1,0],[0,0.25,0],[0,0.5,0],[0,0.75,0],[1,0.25,0],[1,0.5,0],[1,0.75,0]];outlineConnect=0;fontColor=#232F3E;fillColor=#01A88D;strokeColor=#ffffff;dashed=0;verticalLabelPosition=bottom;verticalAlign=top;align=center;html=1;fontSize=12;fontStyle=0;aspect=fixed;shape=mxgraph.aws4.resourceIcon;resIcon=mxgraph.aws4.sagemaker;" vertex="1" parent="AkDlJ8Yl2c0KQVpsC7aZ-3">
          <mxGeometry x="220" y="265" width="60" height="60" as="geometry" />
        </mxCell>
        <mxCell id="AkDlJ8Yl2c0KQVpsC7aZ-13" value="Lambda(Trigger)" style="sketch=0;points=[[0,0,0],[0.25,0,0],[0.5,0,0],[0.75,0,0],[1,0,0],[0,1,0],[0.25,1,0],[0.5,1,0],[0.75,1,0],[1,1,0],[0,0.25,0],[0,0.5,0],[0,0.75,0],[1,0.25,0],[1,0.5,0],[1,0.75,0]];outlineConnect=0;fontColor=#232F3E;fillColor=#ED7100;strokeColor=#ffffff;dashed=0;verticalLabelPosition=bottom;verticalAlign=top;align=center;html=1;fontSize=12;fontStyle=0;aspect=fixed;shape=mxgraph.aws4.resourceIcon;resIcon=mxgraph.aws4.lambda;" vertex="1" parent="AkDlJ8Yl2c0KQVpsC7aZ-3">
          <mxGeometry x="110" y="270" width="50" height="50" as="geometry" />
        </mxCell>
        <mxCell id="AkDlJ8Yl2c0KQVpsC7aZ-44" style="edgeStyle=orthogonalEdgeStyle;rounded=0;orthogonalLoop=1;jettySize=auto;html=1;entryX=0.5;entryY=0;entryDx=0;entryDy=0;entryPerimeter=0;" edge="1" parent="AkDlJ8Yl2c0KQVpsC7aZ-3" source="AkDlJ8Yl2c0KQVpsC7aZ-7" target="AkDlJ8Yl2c0KQVpsC7aZ-8">
          <mxGeometry relative="1" as="geometry">
            <Array as="points">
              <mxPoint x="85" y="200" />
              <mxPoint x="250" y="200" />
            </Array>
          </mxGeometry>
        </mxCell>
        <mxCell id="AkDlJ8Yl2c0KQVpsC7aZ-45" style="edgeStyle=orthogonalEdgeStyle;rounded=0;orthogonalLoop=1;jettySize=auto;html=1;entryX=0.5;entryY=0;entryDx=0;entryDy=0;entryPerimeter=0;" edge="1" parent="AkDlJ8Yl2c0KQVpsC7aZ-3" source="AkDlJ8Yl2c0KQVpsC7aZ-7" target="AkDlJ8Yl2c0KQVpsC7aZ-13">
          <mxGeometry relative="1" as="geometry">
            <Array as="points">
              <mxPoint x="85" y="200" />
              <mxPoint x="145" y="200" />
            </Array>
          </mxGeometry>
        </mxCell>
        <mxCell id="AkDlJ8Yl2c0KQVpsC7aZ-47" style="edgeStyle=orthogonalEdgeStyle;rounded=0;orthogonalLoop=1;jettySize=auto;html=1;entryX=0.5;entryY=1;entryDx=0;entryDy=0;entryPerimeter=0;" edge="1" parent="AkDlJ8Yl2c0KQVpsC7aZ-3" source="AkDlJ8Yl2c0KQVpsC7aZ-5" target="AkDlJ8Yl2c0KQVpsC7aZ-7">
          <mxGeometry relative="1" as="geometry" />
        </mxCell>
        <mxCell id="AkDlJ8Yl2c0KQVpsC7aZ-49" style="edgeStyle=orthogonalEdgeStyle;rounded=0;orthogonalLoop=1;jettySize=auto;html=1;entryX=0;entryY=0.5;entryDx=0;entryDy=0;entryPerimeter=0;" edge="1" parent="AkDlJ8Yl2c0KQVpsC7aZ-3" source="AkDlJ8Yl2c0KQVpsC7aZ-13" target="AkDlJ8Yl2c0KQVpsC7aZ-8">
          <mxGeometry relative="1" as="geometry" />
        </mxCell>
        <mxCell id="AkDlJ8Yl2c0KQVpsC7aZ-16" value="Public subnet" style="points=[[0,0],[0.25,0],[0.5,0],[0.75,0],[1,0],[1,0.25],[1,0.5],[1,0.75],[1,1],[0.75,1],[0.5,1],[0.25,1],[0,1],[0,0.75],[0,0.5],[0,0.25]];outlineConnect=0;gradientColor=none;html=1;whiteSpace=wrap;fontSize=12;fontStyle=0;container=1;pointerEvents=0;collapsible=0;recursiveResize=0;shape=mxgraph.aws4.group;grIcon=mxgraph.aws4.group_security_group;grStroke=0;strokeColor=#7AA116;fillColor=#F2F6E8;verticalAlign=top;align=left;spacingLeft=30;fontColor=#248814;dashed=0;" vertex="1" parent="AkDlJ8Yl2c0KQVpsC7aZ-2">
          <mxGeometry x="20" y="190" width="200" height="360" as="geometry" />
        </mxCell>
        <mxCell id="AkDlJ8Yl2c0KQVpsC7aZ-19" value="ALB" style="sketch=0;outlineConnect=0;fontColor=#232F3E;gradientColor=none;fillColor=#8C4FFF;strokeColor=none;dashed=0;verticalLabelPosition=bottom;verticalAlign=top;align=center;html=1;fontSize=12;fontStyle=0;aspect=fixed;pointerEvents=1;shape=mxgraph.aws4.application_load_balancer;" vertex="1" parent="AkDlJ8Yl2c0KQVpsC7aZ-16">
          <mxGeometry x="80" y="210" width="50" height="50" as="geometry" />
        </mxCell>
        <mxCell id="AkDlJ8Yl2c0KQVpsC7aZ-6" value="Next.js(ECS Fargate)" style="sketch=0;points=[[0,0,0],[0.25,0,0],[0.5,0,0],[0.75,0,0],[1,0,0],[0,1,0],[0.25,1,0],[0.5,1,0],[0.75,1,0],[1,1,0],[0,0.25,0],[0,0.5,0],[0,0.75,0],[1,0.25,0],[1,0.5,0],[1,0.75,0]];outlineConnect=0;fontColor=#232F3E;fillColor=#ED7100;strokeColor=#ffffff;dashed=0;verticalLabelPosition=bottom;verticalAlign=top;align=center;html=1;fontSize=12;fontStyle=0;aspect=fixed;shape=mxgraph.aws4.resourceIcon;resIcon=mxgraph.aws4.fargate;" vertex="1" parent="AkDlJ8Yl2c0KQVpsC7aZ-16">
          <mxGeometry x="80" y="60" width="50" height="50" as="geometry" />
        </mxCell>
        <mxCell id="AkDlJ8Yl2c0KQVpsC7aZ-38" style="edgeStyle=orthogonalEdgeStyle;rounded=0;orthogonalLoop=1;jettySize=auto;html=1;entryX=0.5;entryY=1;entryDx=0;entryDy=0;entryPerimeter=0;" edge="1" parent="AkDlJ8Yl2c0KQVpsC7aZ-16" source="AkDlJ8Yl2c0KQVpsC7aZ-19" target="AkDlJ8Yl2c0KQVpsC7aZ-6">
          <mxGeometry relative="1" as="geometry" />
        </mxCell>
        <mxCell id="AkDlJ8Yl2c0KQVpsC7aZ-52" style="edgeStyle=orthogonalEdgeStyle;rounded=0;orthogonalLoop=1;jettySize=auto;html=1;" edge="1" parent="AkDlJ8Yl2c0KQVpsC7aZ-2" source="AkDlJ8Yl2c0KQVpsC7aZ-22" target="AkDlJ8Yl2c0KQVpsC7aZ-4">
          <mxGeometry relative="1" as="geometry" />
        </mxCell>
        <mxCell id="AkDlJ8Yl2c0KQVpsC7aZ-22" value="CloudWatch(Monitoring&lt;span style=&quot;background-color: transparent; color: light-dark(rgb(35, 47, 62), rgb(189, 199, 212));&quot;&gt;)&lt;/span&gt;" style="sketch=0;points=[[0,0,0],[0.25,0,0],[0.5,0,0],[0.75,0,0],[1,0,0],[0,1,0],[0.25,1,0],[0.5,1,0],[0.75,1,0],[1,1,0],[0,0.25,0],[0,0.5,0],[0,0.75,0],[1,0.25,0],[1,0.5,0],[1,0.75,0]];points=[[0,0,0],[0.25,0,0],[0.5,0,0],[0.75,0,0],[1,0,0],[0,1,0],[0.25,1,0],[0.5,1,0],[0.75,1,0],[1,1,0],[0,0.25,0],[0,0.5,0],[0,0.75,0],[1,0.25,0],[1,0.5,0],[1,0.75,0]];outlineConnect=0;fontColor=#232F3E;fillColor=#E7157B;strokeColor=#ffffff;dashed=0;verticalLabelPosition=bottom;verticalAlign=top;align=center;html=1;fontSize=12;fontStyle=0;aspect=fixed;shape=mxgraph.aws4.resourceIcon;resIcon=mxgraph.aws4.cloudwatch_2;" vertex="1" parent="AkDlJ8Yl2c0KQVpsC7aZ-2">
          <mxGeometry x="230" y="50" width="60" height="60" as="geometry" />
        </mxCell>
        <mxCell id="AkDlJ8Yl2c0KQVpsC7aZ-24" value="CodePipeline&lt;div&gt;&lt;br&gt;&lt;/div&gt;" style="sketch=0;points=[[0,0,0],[0.25,0,0],[0.5,0,0],[0.75,0,0],[1,0,0],[0,1,0],[0.25,1,0],[0.5,1,0],[0.75,1,0],[1,1,0],[0,0.25,0],[0,0.5,0],[0,0.75,0],[1,0.25,0],[1,0.5,0],[1,0.75,0]];outlineConnect=0;fontColor=#232F3E;fillColor=#C925D1;strokeColor=#ffffff;dashed=0;verticalLabelPosition=bottom;verticalAlign=top;align=center;html=1;fontSize=12;fontStyle=0;aspect=fixed;shape=mxgraph.aws4.resourceIcon;resIcon=mxgraph.aws4.codepipeline;" vertex="1" parent="AkDlJ8Yl2c0KQVpsC7aZ-2">
          <mxGeometry x="100" y="130" width="50" height="50" as="geometry" />
        </mxCell>
        <mxCell id="AkDlJ8Yl2c0KQVpsC7aZ-39" style="edgeStyle=orthogonalEdgeStyle;rounded=0;orthogonalLoop=1;jettySize=auto;html=1;entryX=0;entryY=0.5;entryDx=0;entryDy=0;entryPerimeter=0;" edge="1" parent="AkDlJ8Yl2c0KQVpsC7aZ-2" source="AkDlJ8Yl2c0KQVpsC7aZ-6" target="AkDlJ8Yl2c0KQVpsC7aZ-5">
          <mxGeometry relative="1" as="geometry" />
        </mxCell>
        <mxCell id="AkDlJ8Yl2c0KQVpsC7aZ-42" style="edgeStyle=orthogonalEdgeStyle;rounded=0;orthogonalLoop=1;jettySize=auto;html=1;entryX=0;entryY=0.5;entryDx=0;entryDy=0;entryPerimeter=0;" edge="1" parent="AkDlJ8Yl2c0KQVpsC7aZ-2" source="AkDlJ8Yl2c0KQVpsC7aZ-6" target="AkDlJ8Yl2c0KQVpsC7aZ-7">
          <mxGeometry relative="1" as="geometry" />
        </mxCell>
        <mxCell id="AkDlJ8Yl2c0KQVpsC7aZ-50" style="edgeStyle=orthogonalEdgeStyle;rounded=0;orthogonalLoop=1;jettySize=auto;html=1;entryX=0.5;entryY=0;entryDx=0;entryDy=0;entryPerimeter=0;" edge="1" parent="AkDlJ8Yl2c0KQVpsC7aZ-2" source="AkDlJ8Yl2c0KQVpsC7aZ-24" target="AkDlJ8Yl2c0KQVpsC7aZ-7">
          <mxGeometry relative="1" as="geometry" />
        </mxCell>
        <mxCell id="AkDlJ8Yl2c0KQVpsC7aZ-51" style="edgeStyle=orthogonalEdgeStyle;rounded=0;orthogonalLoop=1;jettySize=auto;html=1;entryX=0.5;entryY=0;entryDx=0;entryDy=0;entryPerimeter=0;" edge="1" parent="AkDlJ8Yl2c0KQVpsC7aZ-2" source="AkDlJ8Yl2c0KQVpsC7aZ-24" target="AkDlJ8Yl2c0KQVpsC7aZ-6">
          <mxGeometry relative="1" as="geometry" />
        </mxCell>
        <mxCell id="AkDlJ8Yl2c0KQVpsC7aZ-53" style="edgeStyle=orthogonalEdgeStyle;rounded=0;orthogonalLoop=1;jettySize=auto;html=1;entryX=0.75;entryY=0;entryDx=0;entryDy=0;entryPerimeter=0;" edge="1" parent="AkDlJ8Yl2c0KQVpsC7aZ-2" source="AkDlJ8Yl2c0KQVpsC7aZ-22" target="AkDlJ8Yl2c0KQVpsC7aZ-8">
          <mxGeometry relative="1" as="geometry" />
        </mxCell>
        <mxCell id="AkDlJ8Yl2c0KQVpsC7aZ-54" style="edgeStyle=orthogonalEdgeStyle;rounded=0;orthogonalLoop=1;jettySize=auto;html=1;entryX=0.25;entryY=0;entryDx=0;entryDy=0;entryPerimeter=0;" edge="1" parent="AkDlJ8Yl2c0KQVpsC7aZ-2" source="AkDlJ8Yl2c0KQVpsC7aZ-22" target="AkDlJ8Yl2c0KQVpsC7aZ-7">
          <mxGeometry relative="1" as="geometry" />
        </mxCell>
        <mxCell id="AkDlJ8Yl2c0KQVpsC7aZ-55" style="edgeStyle=orthogonalEdgeStyle;rounded=0;orthogonalLoop=1;jettySize=auto;html=1;entryX=1;entryY=0.25;entryDx=0;entryDy=0;entryPerimeter=0;" edge="1" parent="AkDlJ8Yl2c0KQVpsC7aZ-2" source="AkDlJ8Yl2c0KQVpsC7aZ-22" target="AkDlJ8Yl2c0KQVpsC7aZ-6">
          <mxGeometry relative="1" as="geometry" />
        </mxCell>
        <mxCell id="AkDlJ8Yl2c0KQVpsC7aZ-32" style="edgeStyle=orthogonalEdgeStyle;rounded=0;orthogonalLoop=1;jettySize=auto;html=1;" edge="1" parent="1" source="AkDlJ8Yl2c0KQVpsC7aZ-33" target="AkDlJ8Yl2c0KQVpsC7aZ-34">
          <mxGeometry relative="1" as="geometry" />
        </mxCell>
        <mxCell id="AkDlJ8Yl2c0KQVpsC7aZ-33" value="users" style="sketch=0;outlineConnect=0;gradientColor=none;fontColor=#545B64;strokeColor=none;fillColor=#879196;dashed=0;verticalLabelPosition=bottom;verticalAlign=top;align=center;html=1;fontSize=12;fontStyle=0;aspect=fixed;shape=mxgraph.aws4.illustration_users;pointerEvents=1" vertex="1" parent="1">
          <mxGeometry x="17" y="140" width="75" height="75" as="geometry" />
        </mxCell>
        <mxCell id="AkDlJ8Yl2c0KQVpsC7aZ-37" style="edgeStyle=orthogonalEdgeStyle;rounded=0;orthogonalLoop=1;jettySize=auto;html=1;" edge="1" parent="1" source="AkDlJ8Yl2c0KQVpsC7aZ-34" target="AkDlJ8Yl2c0KQVpsC7aZ-19">
          <mxGeometry relative="1" as="geometry">
            <Array as="points">
              <mxPoint x="55" y="505" />
            </Array>
          </mxGeometry>
        </mxCell>
        <mxCell id="AkDlJ8Yl2c0KQVpsC7aZ-34" value="" style="sketch=0;outlineConnect=0;fontColor=#232F3E;gradientColor=none;fillColor=#232F3D;strokeColor=none;dashed=0;verticalLabelPosition=bottom;verticalAlign=top;align=center;html=1;fontSize=12;fontStyle=0;aspect=fixed;pointerEvents=1;shape=mxgraph.aws4.internet_alt2;" vertex="1" parent="1">
          <mxGeometry x="15.5" y="280" width="78" height="78" as="geometry" />
        </mxCell>
      </root>
    </mxGraphModel>
  </diagram>
</mxfile>
